<?xml version="1.0" encoding="UTF-8"?>
<svg id="Layer_1" data-name="Layer 1" xmlns="http://www.w3.org/2000/svg" viewBox="0 0 2001.37 929.18">
  <defs>
    <style>
      .cls-1 {
        letter-spacing: 0em;
      }

      .cls-2 {
        letter-spacing: 0em;
      }

      .cls-3 {
        letter-spacing: .03em;
      }

      .cls-4 {
        letter-spacing: .04em;
      }

      .cls-5 {
        font-family: CostaBrisa-Script, 'Costa Brisa';
        font-size: 250.41px;
      }

      .cls-5, .cls-6 {
        fill: #4e7c77;
      }

      .cls-7 {
        fill: #eee7da;
        font-family: CostaBrisa-Sans, 'Costa Brisa';
        font-size: 578.46px;
      }

      .cls-6 {
        stroke-width: 0px;
      }

      .cls-8 {
        letter-spacing: -.03em;
      }
    </style>
  </defs>
  <text class="cls-7" transform="translate(7.44 491.12)"><tspan class="cls-4" x="0" y="0">S</tspan><tspan class="cls-1" x="314.67" y="0">U</tspan><tspan class="cls-3" x="620.67" y="0">R</tspan><tspan x="931.3" y="0">FING</tspan></text>
  <g>
    <text class="cls-5" transform="translate(714.84 802.63) rotate(-5.34)"><tspan x="0" y="0">in C</tspan><tspan class="cls-8" x="427.95" y="0">a</tspan><tspan class="cls-2" x="556.15" y="0">nggu</tspan></text>
    <g>
      <path class="cls-6" d="M671.37,694.91c-.55.62-1.43.8-2.18.46-11.32-5.16-22-8.21-33.94-8.53-38.58-1.54-71.51,35.02-71.76,72.56-.96,37.25,34.84,70.96,72.25,59.2,34.34-5.79,84.75-21.07,113.3,5.52,1.21,1.3-.73,3.37-2.08,2.07-37.6-28.55-94.81,6.46-136.21,7.04-76.2-3.74-94.17-116.82-34.4-155.57,29.41-20.79,74.66-15.18,95.15,14.96.49.71.44,1.66-.13,2.31Z"/>
      <path class="cls-6" d="M217.15,828.15c0-.9.59-1.7,1.45-1.96,10.8-3.28,21.32-6.35,31.52-9.78,17.8-6.03,35.49-13.23,51.72-22.63,84.73-46.38,108.87-169.24,213.66-184.58,37.9-6.91,78.06,1.07,109.51,23.51,20.19,15.25,42.36,37.59,46.77,62.02-30.03-30.9-68.08-60.86-115.98-59.43-125.95,3.63-127.25,130.14-237.51,176.96-31.15,13.5-65.38,18.12-99.11,17.93-1.12,0-2.02-.91-2.02-2.03Z"/>
      <path class="cls-6" d="M630.97,803.48c-17.34,7.21-38.96-3.32-49.21-18.47-11.43-16.08-12.05-38.29-3.58-55.82,9.14-20,33.61-35.72,55.22-28.87,0,.26-.22.47-.48.47-6.62-.01-13.21,1.31-19.29,3.86-50.18,20.48-39.54,100.68,17.34,98.82Z"/>
    </g>
  </g>
</svg>